<svg width="19" height="17" viewBox="0 0 19 17" fill="none" xmlns="http://www.w3.org/2000/svg">
<path d="M17.4206 10.0046L18.98 3.09836C19.0926 2.59972 18.716 2.12488 18.208 2.12488H5.25165L4.9493 0.637046C4.87396 0.2662 4.54978 -0.00012207 4.1737 -0.00012207H0.791667C0.354436 -0.00012207 0 0.356645 0 0.796753V1.328C0 1.76811 0.354436 2.12488 0.791667 2.12488H3.09684L5.41404 13.528C4.85968 13.8489 4.48611 14.4506 4.48611 15.1405C4.48611 16.1674 5.31314 16.9999 6.33333 16.9999C7.35353 16.9999 8.18056 16.1674 8.18056 15.1405C8.18056 14.6201 7.9679 14.1499 7.6256 13.8124H14.541C14.1988 14.1499 13.9861 14.6201 13.9861 15.1405C13.9861 16.1674 14.8131 16.9999 15.8333 16.9999C16.8535 16.9999 17.6806 16.1674 17.6806 15.1405C17.6806 14.4043 17.2554 13.7682 16.6389 13.4669L16.8209 12.6609C16.9335 12.1622 16.5569 11.6874 16.0489 11.6874H7.19483L6.97894 10.6249H16.6487C17.0183 10.6249 17.3387 10.3674 17.4206 10.0046Z" fill="#253D4E"/>
</svg>
