<svg width="24" height="22" viewBox="0 0 24 22" fill="none" xmlns="http://www.w3.org/2000/svg">
<path d="M23.6736 19.0204L18.9998 14.7368C18.7889 14.5435 18.5029 14.4361 18.2029 14.4361H17.4388C18.7326 12.9194 19.5014 11.0118 19.5014 8.93663C19.5014 4 15.137 0 9.75071 0C4.36438 0 0 4 0 8.93663C0 13.8733 4.36438 17.8733 9.75071 17.8733C12.0149 17.8733 14.0963 17.1686 15.7512 15.9828V16.6831C15.7512 16.9581 15.8683 17.2202 16.0793 17.4135L20.7531 21.6971C21.1937 22.101 21.9063 22.101 22.3423 21.6971L23.6689 20.4812C24.1096 20.0773 24.1096 19.4243 23.6736 19.0204ZM9.75071 14.4361C6.43641 14.4361 3.75027 11.9785 3.75027 8.93663C3.75027 5.89903 6.43172 3.43716 9.75071 3.43716C13.065 3.43716 15.7512 5.89474 15.7512 8.93663C15.7512 11.9742 13.0697 14.4361 9.75071 14.4361Z" fill="#1B3363"/>
</svg>
