<svg width="16" height="14" viewBox="0 0 16 14" fill="none" xmlns="http://www.w3.org/2000/svg">
<path d="M4.44444 12.25C3.73333 12.25 3.02222 11.6375 2.66667 11.375C0.888889 10.15 0.355556 9.7125 0 9.45V13.125C0 13.6082 0.398056 14 0.888889 14H8C8.49083 14 8.88889 13.6082 8.88889 13.125V9.45C8.53333 9.7125 8 10.15 6.22222 11.375C5.86667 11.6375 5.15556 12.25 4.44444 12.25ZM8 7H0.888889C0.398056 7 0 7.39184 0 7.875V8.3125C0.711111 8.8375 0.622222 8.8375 3.2 10.675C3.46667 10.85 4 11.375 4.44444 11.375C4.88889 11.375 5.42222 10.85 5.68889 10.7625C8.26667 8.925 8.17778 8.925 8.88889 8.4V7.875C8.88889 7.39184 8.49083 7 8 7ZM15.1111 4.375H6.22222C5.73139 4.375 5.33333 4.76684 5.33333 5.25V6.125H8C8.9225 6.125 9.68305 6.82008 9.76972 7.70602L9.77778 7.7V11.375H15.1111C15.6019 11.375 16 10.9832 16 10.5V5.25C16 4.76684 15.6019 4.375 15.1111 4.375ZM14.2222 7.875H12.4444V6.125H14.2222V7.875ZM4.44444 5.25C4.44444 4.28504 5.24194 3.5 6.22222 3.5H12.4444V0.875C12.4444 0.391836 12.0464 0 11.5556 0H2.66667C2.17583 0 1.77778 0.391836 1.77778 0.875V6.125H4.44444V5.25Z" fill="#3BB77E"/>
</svg>
