<svg width="122" height="66" viewBox="0 0 122 66" fill="none" xmlns="http://www.w3.org/2000/svg">
<rect y="35.6769" width="10" height="30.3231" rx="5" fill="url(#paint0_linear_56_18286)"/>
<rect x="64" y="26.6924" width="10" height="39.3077" rx="5" fill="url(#paint1_linear_56_18286)"/>
<rect x="16" y="26.6924" width="10" height="39.3077" rx="5" fill="url(#paint2_linear_56_18286)"/>
<rect x="96" y="3.10773" width="10" height="62.8923" rx="5" fill="url(#paint3_linear_56_18286)"/>
<rect x="32" y="14.3385" width="10" height="51.6615" rx="5" fill="url(#paint4_linear_56_18286)"/>
<rect x="112" y="0.861572" width="10" height="65.1385" rx="5" fill="url(#paint5_linear_56_18286)"/>
<rect x="48" y="21.077" width="10" height="44.9231" rx="5" fill="url(#paint6_linear_56_18286)"/>
<rect x="80" y="8.72311" width="10" height="57.2769" rx="5" fill="url(#paint7_linear_56_18286)"/>
<defs>
<linearGradient id="paint0_linear_56_18286" x1="5" y1="35.6769" x2="5" y2="66" gradientUnits="userSpaceOnUse">
<stop stop-color="#FFD7A0"/>
<stop offset="1" stop-color="#FB9333"/>
</linearGradient>
<linearGradient id="paint1_linear_56_18286" x1="69" y1="26.6924" x2="69" y2="66" gradientUnits="userSpaceOnUse">
<stop stop-color="#FFD7A0"/>
<stop offset="1" stop-color="#FB9333"/>
</linearGradient>
<linearGradient id="paint2_linear_56_18286" x1="21" y1="26.6924" x2="21" y2="66" gradientUnits="userSpaceOnUse">
<stop stop-color="#FFD7A0"/>
<stop offset="1" stop-color="#FB9333"/>
</linearGradient>
<linearGradient id="paint3_linear_56_18286" x1="101" y1="3.10773" x2="101" y2="66" gradientUnits="userSpaceOnUse">
<stop stop-color="#FFD7A0"/>
<stop offset="1" stop-color="#FB9333"/>
</linearGradient>
<linearGradient id="paint4_linear_56_18286" x1="37" y1="14.3385" x2="37" y2="66" gradientUnits="userSpaceOnUse">
<stop stop-color="#FFD7A0"/>
<stop offset="1" stop-color="#FB9333"/>
</linearGradient>
<linearGradient id="paint5_linear_56_18286" x1="117" y1="0.861572" x2="117" y2="66" gradientUnits="userSpaceOnUse">
<stop stop-color="#FFD7A0"/>
<stop offset="1" stop-color="#FB9333"/>
</linearGradient>
<linearGradient id="paint6_linear_56_18286" x1="53" y1="21.077" x2="53" y2="66" gradientUnits="userSpaceOnUse">
<stop stop-color="#FFD7A0"/>
<stop offset="1" stop-color="#FB9333"/>
</linearGradient>
<linearGradient id="paint7_linear_56_18286" x1="85" y1="8.72311" x2="85" y2="66" gradientUnits="userSpaceOnUse">
<stop stop-color="#FFD7A0"/>
<stop offset="1" stop-color="#FB9333"/>
</linearGradient>
</defs>
</svg>
