<svg width="20" height="20" viewBox="0 0 20 20" fill="none" xmlns="http://www.w3.org/2000/svg">
<path d="M3.54199 1.25C3.19681 1.25 2.91699 1.52982 2.91699 1.875C2.91699 2.22018 3.19681 2.5 3.54199 2.5H16.4587C16.8038 2.5 17.0837 2.22018 17.0837 1.875C17.0837 1.52982 16.8038 1.25 16.4587 1.25H3.54199Z" fill="white"/>
<path d="M0.859049 8.09563C0.841899 7.98463 0.833008 7.87096 0.833008 7.75529V4.36404C0.833008 4.02492 1.11317 3.75 1.45876 3.75H18.5406C18.8862 3.75 19.1663 4.02492 19.1663 4.36404V7.75529C19.1663 7.87758 19.1564 7.99758 19.1373 8.11458C18.8045 8.73313 18.1819 9.12988 17.5092 9.12988H17.4229C16.901 9.12988 16.4201 8.89883 16.0712 8.50779C15.9524 8.37467 15.7808 8.29829 15.6004 8.29829C15.42 8.29829 15.2485 8.37467 15.1296 8.50779C14.7808 8.89883 14.2998 9.12988 13.7779 9.12988H13.6916C13.1697 9.12988 12.6887 8.89879 12.3398 8.50771C12.221 8.37454 12.0494 8.29817 11.869 8.29817C11.6886 8.29817 11.517 8.37454 11.3982 8.50771C11.0493 8.89879 10.5683 9.12988 10.0463 9.12988H9.96005C9.43813 9.12988 8.95722 8.89883 8.60834 8.50779C8.48951 8.37467 8.31792 8.29829 8.13755 8.29829C7.95717 8.29829 7.78559 8.37467 7.66676 8.50779C7.31784 8.89883 6.83692 9.12988 6.31501 9.12988H6.22872C5.70676 9.12988 5.2258 8.89879 4.87692 8.50771C4.75809 8.37454 4.58647 8.29817 4.40609 8.29817C4.22572 8.29817 4.05411 8.37454 3.93529 8.50771C3.58638 8.89879 3.10542 9.12988 2.58347 9.12988H2.49717C1.81764 9.12988 1.18918 8.725 0.859049 8.09563Z" fill="white"/>
<path d="M2.70312 10.3557V17.7266C2.70312 18.2918 3.17006 18.75 3.74605 18.75H6.87482V15.6797C6.87482 13.9841 8.27561 12.6095 10.0036 12.6095C11.7316 12.6095 13.1324 13.9841 13.1324 15.6797V18.75H16.2612C16.8372 18.75 17.3041 18.2918 17.3041 17.7266V10.3557C16.6659 10.3307 16.0807 10.107 15.6008 9.74862C15.0911 10.1292 14.4628 10.358 13.7783 10.358H13.692C13.0075 10.358 12.3791 10.1292 11.8694 9.74854C11.3597 10.1292 10.7313 10.358 10.0467 10.358H9.96044C9.27598 10.358 8.64761 10.1292 8.13794 9.74862C7.62827 10.1292 6.9999 10.358 6.3154 10.358H6.22911C5.54461 10.358 4.91619 10.1292 4.40648 9.74854C3.92654 10.107 3.34133 10.3307 2.70312 10.3557Z" fill="white"/>
<path d="M11.8805 18.75V15.6798C11.8805 14.6624 11.0401 13.8376 10.0033 13.8376C8.96648 13.8376 8.12598 14.6624 8.12598 15.6798V18.75H11.8805Z" fill="white"/>
</svg>
